HIERARCHY
ROOT joint_Root
{
	OFFSET 0.0 0.0 0.0
	CHANNELS 6 Xposition Yposition Zposition Zrotation Xrotation Yrotation 
	JOINT Hips
	{
		OFFSET 4.5925 91.4895 -427.239
		CHANNELS 6 Xposition Yposition Zposition Zrotation Xrotation Yrotation 
		JOINT Spine
		{
			OFFSET 15.7357 0.0 0.0
			CHANNELS 6 Xposition Yposition Zposition Zrotation Xrotation Yrotation 
			JOINT Chest
			{
				OFFSET 8.98455 -0.406207 0.0
				CHANNELS 6 Xposition Yposition Zposition Zrotation Xrotation Yrotation 
				JOINT Neck
				{
					OFFSET 16.3773 0.0 0.0
					CHANNELS 6 Xposition Yposition Zposition Zrotation Xrotation Yrotation 
					JOINT Head
					{
						OFFSET 6.45672 0.0 0.0
						CHANNELS 6 Xposition Yposition Zposition Zrotation Xrotation Yrotation 
						End Site
						{
							OFFSET 0.0 0.0 0.0
						}
					}
				}
				JOINT Shoulder_L
				{
					OFFSET 12.9942 -0.242716 4.98039
					CHANNELS 6 Xposition Yposition Zposition Zrotation Xrotation Yrotation 
					JOINT UpperArm_L
					{
						OFFSET 5.34809 0.0 0.0
						CHANNELS 6 Xposition Yposition Zposition Zrotation Xrotation Yrotation 
						JOINT LowerArm_L
						{
							OFFSET 24.3286 1.87007e-05 0.0
							CHANNELS 6 Xposition Yposition Zposition Zrotation Xrotation Yrotation 
							JOINT Hand_L
							{
								OFFSET 22.2916 0.0 0.0
								CHANNELS 6 Xposition Yposition Zposition Zrotation Xrotation Yrotation 
								End Site
								{
									OFFSET 0.0 0.0 0.0
								}
							}
						}
					}
				}
				JOINT Shoulder_R
				{
					OFFSET 12.9945 -0.242716 -4.98039
					CHANNELS 6 Xposition Yposition Zposition Zrotation Xrotation Yrotation 
					JOINT UpperArm_R
					{
						OFFSET -5.34813 0.0 0.0
						CHANNELS 6 Xposition Yposition Zposition Zrotation Xrotation Yrotation 
						JOINT LowerArm_R
						{
							OFFSET -24.3289 0.000322201 0.0
							CHANNELS 6 Xposition Yposition Zposition Zrotation Xrotation Yrotation 
							JOINT Hand_R
							{
								OFFSET -22.2915 -0.000108084 0.0
								CHANNELS 6 Xposition Yposition Zposition Zrotation Xrotation Yrotation 
								End Site
								{
									OFFSET 0.0 0.0 0.0
								}
							}
						}
					}
				}
			}
		}
		JOINT UpperLeg_L
		{
			OFFSET -2.19248 -6.46944 0.0
			CHANNELS 6 Xposition Yposition Zposition Zrotation Xrotation Yrotation 
			JOINT LowerLeg_L
			{
				OFFSET 39.0811 0.0 -1.23785e-05
				CHANNELS 6 Xposition Yposition Zposition Zrotation Xrotation Yrotation 
				JOINT Foot_L
				{
					OFFSET 40.9854 0.0 -1.26872e-05
					CHANNELS 6 Xposition Yposition Zposition Zrotation Xrotation Yrotation 
					JOINT Toes_L
					{
						OFFSET 11.7543 0.0 0.0
						CHANNELS 6 Xposition Yposition Zposition Zrotation Xrotation Yrotation 
						End Site
						{
							OFFSET 0.0 0.0 0.0
						}
					}
				}
			}
		}
		JOINT UpperLeg_R
		{
			OFFSET -2.19251 6.46944 0.0
			CHANNELS 6 Xposition Yposition Zposition Zrotation Xrotation Yrotation 
			JOINT LowerLeg_R
			{
				OFFSET -39.0811 -0.00228153 -0.0401928
				CHANNELS 6 Xposition Yposition Zposition Zrotation Xrotation Yrotation 
				JOINT Foot_R
				{
					OFFSET -40.9854 0.0 0.0
					CHANNELS 6 Xposition Yposition Zposition Zrotation Xrotation Yrotation 
					JOINT Toes_R
					{
						OFFSET -11.7543 0.0 0.0
						CHANNELS 6 Xposition Yposition Zposition Zrotation Xrotation Yrotation 
						End Site
						{
							OFFSET 0.0 0.0 0.0
						}
					}
				}
			}
		}
	}
}
MOTION
Frames:	4
Frame Time:	0.0333333
0.000000 0.000000 0.000000 0.000000 0.000000 -0.000000 -62.501300 88.292600 190.449000 98.673500 85.172300 -6.949580 15.735700 0.000005 -0.000001 105.278000 84.030300 -105.162000 8.984550 -0.406207 -0.000000 3.752900 3.137760 0.129832 16.377300 -0.000001 -0.000001 -3.263640 -1.351700 3.497650 6.456720 -0.000001 -0.000000 -10.937900 -3.322480 11.609200 12.994200 -0.242716 4.980390 -91.072000 3.827810 -74.342600 5.348090 -0.000007 -0.000001 -66.070500 14.591900 -0.613389 24.328600 0.000019 0.000005 7.347080 31.327100 -13.928000 22.291600 -0.000001 0.000005 12.636100 5.069800 5.798260 12.994500 -0.242716 -4.980390 88.491100 11.515300 -82.483200 -5.348130 -0.000001 -0.000004 -53.563900 29.108400 -24.061900 -24.328900 0.000322 -0.000009 1.775400 3.431230 -27.392600 -22.291500 -0.000108 -0.000004 17.287300 5.403100 -3.038370 -2.192480 -6.469440 -0.000000 -176.468000 -6.119660 -27.830600 39.081100 -0.000007 -0.000012 -0.055988 0.077741 35.761500 40.985400 -0.000006 -0.000013 -2.867500 3.507460 -56.248300 11.754300 -0.000000 0.000003 -0.000014 -0.000182 -16.584700 -2.192510 6.469440 -0.000001 167.960000 21.999900 -168.414000 -39.081100 -0.002282 -0.040193 -0.053328 0.142259 21.712000 -40.985400 0.000008 0.000006 5.715570 21.095500 -81.581100 -11.754300 -0.000006 -0.000006 -0.006164 -0.072319 -19.516500
0.000000 0.000000 0.000000 0.000000 0.000000 -0.000000 -59.097400 87.576100 189.482000 105.059000 83.197200 -13.347500 15.735700 0.000005 -0.000001 109.759000 84.183800 -110.435000 8.984550 -0.406207 -0.000000 3.211770 3.955090 -1.461520 16.377300 -0.000001 -0.000001 -2.884220 -1.533890 3.214230 6.456720 -0.000001 -0.000000 -9.878320 -3.849980 11.772400 12.994200 -0.242716 4.980390 -91.207200 4.142420 -73.737400 5.348090 -0.000007 -0.000001 -64.892300 14.138500 1.283810 24.328600 0.000019 0.000005 7.058720 31.783500 -13.229400 22.291600 -0.000001 0.000005 11.818000 5.058400 6.051550 12.994500 -0.242716 -4.980390 88.419300 11.499300 -82.119000 -5.348130 -0.000001 -0.000004 -55.457600 28.612100 -22.563200 -24.328900 0.000322 -0.000009 2.033490 3.659970 -29.096200 -22.291500 -0.000108 -0.000004 17.947100 5.408410 -3.212250 -2.192480 -6.469440 -0.000000 -177.921000 -7.412620 -28.125000 39.081100 -0.000007 -0.000012 -0.154239 0.175581 41.298100 40.985400 -0.000006 -0.000013 -2.107510 3.390630 -61.545700 11.754300 -0.000000 0.000003 -0.000135 -0.001327 -16.628100 -2.192510 6.469440 -0.000001 166.538000 17.534800 -168.383000 -39.081100 -0.002282 -0.040193 -0.045651 0.109861 24.022200 -40.985400 0.000008 0.000006 4.644070 18.687500 -81.131500 -11.754300 -0.000006 -0.000006 -0.006851 -0.078376 -19.763600
0.000000 0.000000 0.000000 0.000000 0.000000 -0.000000 -55.626600 87.137000 188.516000 105.911000 81.063600 -13.566700 15.735700 0.000005 -0.000001 113.222000 83.924900 -114.518000 8.984550 -0.406207 -0.000000 3.466310 4.833610 -2.737140 16.377300 -0.000001 -0.000001 -2.942570 -1.620850 2.635290 6.456720 -0.000001 -0.000000 -9.645130 -4.498840 11.539300 12.994200 -0.242716 4.980390 -91.411300 4.683910 -73.211400 5.348090 -0.000007 -0.000001 -64.090600 13.205400 2.694550 24.328600 0.000019 0.000005 7.101340 31.468300 -13.422400 22.291600 -0.000001 0.000005 11.872000 5.058780 6.042760 12.994500 -0.242716 -4.980390 88.468100 11.250400 -82.194500 -5.348130 -0.000001 -0.000004 -58.149300 27.391000 -20.204600 -24.328900 0.000322 -0.000009 1.637600 2.718010 -31.108200 -22.291500 -0.000108 -0.000004 18.591700 5.421300 -3.642400 -2.192480 -6.469440 -0.000000 -179.077000 -9.320140 -26.556000 39.081100 -0.000007 -0.000012 -0.205141 0.206485 44.813500 40.985400 -0.000006 -0.000013 -1.257860 3.134610 -66.050700 11.754300 -0.000000 0.000003 -0.000228 -0.002068 -16.655300 -2.192510 6.469440 -0.000001 165.293000 13.176800 -168.901000 -39.081100 -0.002282 -0.040193 -0.030208 0.061998 28.393300 -40.985400 0.000008 0.000006 4.034170 16.610100 -79.615500 -11.754300 -0.000006 -0.000006 -0.017436 -0.152646 -22.805200
0.000000 0.000000 0.000000 0.000000 0.000000 -0.000000 -52.329100 87.102700 187.616000 105.325000 79.362800 -12.375900 15.735700 0.000005 -0.000001 114.035000 83.790200 -115.716000 8.984550 -0.406207 -0.000000 3.666360 5.112000 -3.524230 16.377300 -0.000001 -0.000001 -2.955300 -1.514970 1.867450 6.456720 -0.000001 -0.000000 -9.902030 -4.715570 10.308400 12.994200 -0.242716 4.980390 -91.701000 5.437560 -72.599700 5.348090 -0.000007 -0.000001 -63.831800 12.533900 3.820540 24.328600 0.000019 0.000005 6.936170 30.350700 -13.536800 22.291600 -0.000001 0.000005 12.311700 5.076090 5.656450 12.994500 -0.242716 -4.980390 88.503000 11.200200 -82.337100 -5.348130 -0.000001 -0.000004 -59.761200 27.609300 -18.216200 -24.328900 0.000322 -0.000009 0.511465 0.814088 -32.202700 -22.291500 -0.000108 -0.000004 18.808100 5.435920 -4.143810 -2.192480 -6.469440 -0.000000 -179.895000 -9.933190 -23.960400 39.081100 -0.000007 -0.000012 -0.260465 0.251185 46.039700 40.985400 -0.000006 -0.000013 -0.861973 1.924750 -69.367900 11.754300 -0.000000 0.000003 -0.000333 -0.002842 -16.683000 -2.192510 6.469440 -0.000001 164.297000 10.007000 -170.811000 -39.081100 -0.002282 -0.040193 0.008796 -0.007948 34.706400 -40.985400 0.000008 0.000006 3.664270 15.281600 -75.856100 -11.754300 -0.000006 -0.000006 -0.045158 -0.280050 -28.092800
